<?xml version="1.0" encoding="UTF-8" standalone="no"?>
<!-- Created with Inkscape (http://www.inkscape.org/) -->

<svg
   xmlns:dc="http://purl.org/dc/elements/1.1/"
   xmlns:cc="http://creativecommons.org/ns#"
   xmlns:rdf="http://www.w3.org/1999/02/22-rdf-syntax-ns#"
   xmlns:svg="http://www.w3.org/2000/svg"
   xmlns="http://www.w3.org/2000/svg"
   xmlns:sodipodi="http://sodipodi.sourceforge.net/DTD/sodipodi-0.dtd"
   xmlns:inkscape="http://www.inkscape.org/namespaces/inkscape"
   width="80"
   height="80"
   viewBox="0 0 80.000001 80.000001"
   id="svg6746"
   version="1.1"
   inkscape:version="0.91 r"
   sodipodi:docname="icon-sc.svg">
  <defs
     id="defs6748" />
  <sodipodi:namedview
     id="base"
     pagecolor="#ffffff"
     bordercolor="#666666"
     borderopacity="1.0"
     inkscape:pageopacity="0.0"
     inkscape:pageshadow="2"
     inkscape:zoom="3.959798"
     inkscape:cx="-3.7163376"
     inkscape:cy="8.0642391"
     inkscape:document-units="px"
     inkscape:current-layer="layer1"
     showgrid="false"
     units="px"
     inkscape:window-width="1366"
     inkscape:window-height="744"
     inkscape:window-x="0"
     inkscape:window-y="24"
     inkscape:window-maximized="1" />
  <metadata
     id="metadata6751">
    <rdf:RDF>
      <cc:Work
         rdf:about="">
        <dc:format>image/svg+xml</dc:format>
        <dc:type
           rdf:resource="http://purl.org/dc/dcmitype/StillImage" />
        <dc:title />
      </cc:Work>
    </rdf:RDF>
  </metadata>
  <g
     inkscape:label="Layer 1"
     inkscape:groupmode="layer"
     id="layer1"
     transform="translate(0,-972.36216)">
    <path
       style="fill:#000000"
       d="m 13.027925,1029.4858 c -0.169337,-0.1038 -0.311893,-1.25 -0.572321,-4.6009 l -0.346746,-4.4618 0.358854,-4.0916 c 0.197332,-2.2505 0.411198,-4.1763 0.475198,-4.2799 0.189878,-0.307 0.578241,-0.217 0.741949,0.1754 0.08401,0.2008 0.302827,2.2062 0.486561,4.4579 l 0.334052,4.0941 -0.334401,3.9935 c -0.183992,2.1958 -0.367412,4.1488 -0.407732,4.3392 -0.08586,0.4044 -0.415094,0.5719 -0.735414,0.3741 z m 3.132935,0.039 c -0.130932,-0.083 -0.303707,-1.6138 -0.524906,-4.6478 -0.279948,-3.8396 -0.306721,-5.0247 -0.177068,-7.8393 0.08401,-1.8238 0.199733,-4.6261 0.2576,-6.2272 0.118677,-3.2969 0.260534,-4.1245 0.707015,-4.1245 0.163728,0 0.369893,0.09 0.458452,0.2031 0.159989,0.2008 0.348747,2.8298 0.707308,9.8453 0.188539,3.6872 0.17146,4.1952 -0.351441,10.4856 -0.190662,2.2941 -0.397625,2.7375 -1.076745,2.3057 z m 3.08059,-0.072 c -0.06933,-0.1131 -0.2488,-2.0585 -0.399015,-4.3268 -0.252266,-3.8111 -0.254399,-4.7578 -0.02746,-12.4543 0.254134,-8.6147 0.299895,-9.0578 0.937656,-9.0578 0.621894,0 0.68432,0.5156 0.97936,8.0873 0.342267,8.7835 0.340106,9.2324 -0.06721,13.973 -0.225859,2.6274 -0.380906,3.7415 -0.534239,3.8389 -0.316373,0.2007 -0.744642,0.1707 -0.888962,-0.062 z m 3.272374,-0.051 c -0.139725,-0.1407 -0.254131,-0.4165 -0.254131,-0.6148 0,-0.1985 -0.116807,-2.031 -0.259468,-4.0727 -0.269094,-3.8476 -0.265067,-4.4442 0.110137,-16.4087 0.157335,-5.0162 0.204533,-5.6103 0.466747,-5.8801 0.335975,-0.3455 0.886056,-0.2478 1.054188,0.1847 0.121861,0.3143 0.186669,1.5205 0.323333,6.0185 0.05281,1.7346 0.172545,5.1047 0.266401,7.4889 0.170675,4.3346 0.147457,5.0378 -0.365094,11.031 -0.09892,1.1565 -0.252532,2.1937 -0.341653,2.3049 -0.222673,0.2779 -0.694828,0.2535 -1.000294,-0.051 z m 3.254804,0.028 c -0.159736,-0.1592 -0.268028,-0.7895 -0.3404,-1.9814 -0.05839,-0.9608 -0.182399,-2.8727 -0.275653,-4.2487 -0.248802,-3.6734 0.2568,-20.983 0.625012,-21.3961 0.322589,-0.3619 0.728802,-0.3607 1.057975,0 0.223735,0.2481 0.296213,1.5263 0.532746,9.3962 0.255468,8.5028 0.256001,9.3872 0.0053,13.26 -0.147202,2.2826 -0.266666,4.2721 -0.265066,4.4214 0.0053,0.647 -0.878853,1.0072 -1.340693,0.5454 z m 3.293256,0 c -0.240267,-0.2891 -0.259733,-0.4821 -0.506266,-4.9947 -0.161074,-2.9465 -0.160797,-5.4071 1.31e-4,-12.2117 0.110945,-4.6868 0.222397,-8.8012 0.247734,-9.143 0.0824,-1.1185 1.080401,-1.5794 1.514322,-0.6993 0.105336,0.2123 0.276081,3.8335 0.438108,9.2951 0.249065,8.3957 0.248266,9.2049 -0.01062,13.1822 -0.294161,4.4962 -0.366426,4.8034 -1.130134,4.8034 -0.197609,0 -0.446054,-0.1039 -0.551895,-0.232 z m 3.318374,-0.025 c -0.155742,-0.1547 -0.257332,-0.548 -0.261865,-1.0112 -0.0053,-0.4161 -0.101066,-2.4748 -0.215196,-4.5748 -0.166128,-3.057 -0.169336,-5.4993 -0.01593,-12.2543 0.176006,-7.7342 0.216258,-8.4628 0.482986,-8.7573 0.364986,-0.4032 0.799121,-0.4101 1.190748,-0.028 0.268319,0.2682 0.315466,0.6801 0.411787,3.5988 0.37144,11.2548 0.398854,14.162 0.169868,18.0145 -0.126939,2.1353 -0.232266,4.0768 -0.234133,4.3152 -0.0053,0.5364 -0.388959,0.9416 -0.893174,0.9416 -0.209611,0 -0.495654,-0.1154 -0.635439,-0.2534 z m 3.37699,0.025 c -0.27632,-0.1938 -0.329787,-0.4433 -0.371974,-1.7386 -0.02719,-0.832 -0.103467,-2.4953 -0.169336,-3.6962 -0.06612,-1.2011 -0.05228,-7.133 0.03093,-13.1822 0.16479,-12.00466 0.123454,-11.56476 1.084801,-11.56476 0.966399,0 0.966321,0 1.130879,6.97326 0.08267,3.5038 0.196525,8.2268 0.2528,10.495 0.07494,3.0108 0.03307,5.1727 -0.154657,8.0064 -0.141341,2.1351 -0.257599,4.0039 -0.257866,4.1532 -0.0018,0.6735 -0.910188,0.9992 -1.545416,0.5539 z m 3.22763,-0.1154 c -0.4848,-0.5347 -0.708508,-7.6497 -0.536028,-17.0474 0.07519,-4.0922 0.144271,-8.9477 0.153596,-10.7897 0.01593,-3.08966 0.04214,-3.38146 0.340454,-3.76066 0.423094,-0.5377 1.136986,-0.5509 1.548107,-0.03 0.258401,0.3285 0.30808,0.7361 0.349734,2.87086 0.02666,1.3687 0.133863,6.455 0.238133,11.3033 0.162413,7.5561 0.154404,9.4073 -0.05574,12.9639 -0.215195,3.6393 -0.283039,4.1906 -0.55256,4.4886 -0.39384,0.4353 -1.090988,0.435 -1.485601,0 z m 3.205389,0.088 -0.359493,-0.2534 0,-16.235 0,-16.23516 0.444801,-0.3079 c 0.449492,-0.3115 1.740132,-0.7175 3.517947,-1.1076 1.303602,-0.2855 4.878965,-0.2806 6.392752,0 2.245148,0.4298 5.376832,1.7712 7.008594,3.0022 0.799199,0.6027 2.95576,2.75186 3.570855,3.55846 0.712293,0.9338 2.032828,3.1536 2.032828,3.417 0,0.085 0.136794,0.4244 0.30376,0.7542 0.376455,0.7436 0.990187,3.143 0.990187,3.8709 0,0.7092 0.229875,0.7759 1.601841,0.4639 1.413494,-0.3215 3.342244,-0.3261 4.677977,0 3.198989,0.7543 5.99211,3.3526 7.02665,6.5369 0.1896,0.5839 0.40317,1.0859 0.47429,1.1157 0.1688,0.069 0.16906,3.8651 3.7e-4,3.9358 -0.0709,0.03 -0.29589,0.516 -0.49986,1.081 -1.13598,3.1467 -3.421127,5.3511 -6.545343,6.314 -1.09376,0.3369 -1.3068,0.3418 -15.693692,0.3418 -12.938676,0 -14.62545,-0.03 -14.944358,-0.2507 z m -32.4598391,-0.1846 c -0.06347,-0.1592 -0.269306,-2.1533 -0.457145,-4.4292 l -0.341549,-4.1385 0.36872,-4.5107 c 0.202941,-2.4811 0.403654,-4.5675 0.446347,-4.6365 0.09947,-0.1592 0.7049881,-0.1662 0.7070431,0 9.07e-4,0.067 0.105059,1.0677 0.231467,2.224 0.299118,2.7368 0.617866,6.3562 0.607093,6.8937 -0.0187,0.877 -0.706267,7.8455 -0.821281,8.3103 -0.13707,0.5539 -0.5688011,0.7238 -0.7406141,0.2913 z m -3.083228,-0.2506 c -0.04106,-0.1131 -0.250134,-2.0419 -0.464293,-4.2903 l -0.389495,-4.0886 0.38104,-4.3877 c 0.216535,-2.4942 0.458748,-4.4641 0.561121,-4.5647 0.388668,-0.3827 0.593201,0.4191 0.87104,3.4151 0.154935,1.6714 0.346081,3.5944 0.424587,4.273 0.107206,0.9278 0.06721,1.9114 -0.161327,3.9628 -0.167213,1.5006 -0.355014,3.2745 -0.417361,3.9418 -0.06241,0.6672 -0.175476,1.3767 -0.251201,1.577 -0.150665,0.3979 -0.436053,0.481 -0.55424,0.1639 z m -3.221204,-1.6172 c -0.0472,-0.2895 -0.232,-1.9817 -0.410746,-3.7607 l -0.324799,-3.2348 0.397226,-3.5236 c 0.394055,-3.495 0.459094,-3.8359 0.731735,-3.8359 0.225074,0 0.290852,0.3645 0.736453,4.0849 0.360721,3.0124 0.397226,3.7113 0.253333,4.8523 -0.443014,3.5151 -0.676081,5.2467 -0.750961,5.5793 -0.123731,0.5502 -0.533014,0.4457 -0.632266,-0.1638 z m -2.91226702,-2.4264 c -0.03413,-0.1131 -0.181868,-1.1847 -0.328614,-2.3858 -0.244,-1.998 -0.245066,-2.3241 -0.01339,-3.8402 0.13894,-0.9114 0.253866,-1.8575 0.2552,-2.1026 0.0028,-0.6021 0.250667,-0.9853 0.484694,-0.7515 0.20319402,0.2031 0.79943902,3.6905 0.80386602,4.7023 0.0016,0.3721 -0.142125,1.5367 -0.319706,2.5877 -0.177345,1.0513 -0.323013,1.9297 -0.323493,1.9519 -0.0028,0.1454 -0.50832102,0 -0.55821402,-0.1639 z"
       id="path6716"
       inkscape:connector-curvature="0" />
  </g>
</svg>
