<?xml version="1.0" encoding="UTF-8" standalone="no"?>
<!-- Created with Inkscape (http://www.inkscape.org/) -->

<svg
   xmlns:dc="http://purl.org/dc/elements/1.1/"
   xmlns:cc="http://creativecommons.org/ns#"
   xmlns:rdf="http://www.w3.org/1999/02/22-rdf-syntax-ns#"
   xmlns:svg="http://www.w3.org/2000/svg"
   xmlns="http://www.w3.org/2000/svg"
   xmlns:sodipodi="http://sodipodi.sourceforge.net/DTD/sodipodi-0.dtd"
   xmlns:inkscape="http://www.inkscape.org/namespaces/inkscape"
   width="80"
   height="80"
   viewBox="0 0 80.000001 80.000001"
   id="svg4777"
   version="1.1"
   inkscape:version="0.91 r"
   sodipodi:docname="icon-tw.svg">
  <defs
     id="defs4779" />
  <sodipodi:namedview
     id="base"
     pagecolor="#ffffff"
     bordercolor="#666666"
     borderopacity="1.0"
     inkscape:pageopacity="0.0"
     inkscape:pageshadow="2"
     inkscape:zoom="2.8"
     inkscape:cx="-19.034684"
     inkscape:cy="53.757061"
     inkscape:document-units="px"
     inkscape:current-layer="layer1"
     showgrid="false"
     units="px"
     inkscape:window-width="1366"
     inkscape:window-height="744"
     inkscape:window-x="0"
     inkscape:window-y="24"
     inkscape:window-maximized="1" />
  <metadata
     id="metadata4782">
    <rdf:RDF>
      <cc:Work
         rdf:about="">
        <dc:format>image/svg+xml</dc:format>
        <dc:type
           rdf:resource="http://purl.org/dc/dcmitype/StillImage" />
        <dc:title />
      </cc:Work>
    </rdf:RDF>
  </metadata>
  <g
     inkscape:label="Layer 1"
     inkscape:groupmode="layer"
     id="layer1"
     transform="translate(0,-972.36216)">
    <rect
       y="972.36218"
       x="0"
       height="80"
       width="80"
       id="rect4773"
       style="opacity:1;fill:none;fill-opacity:1;stroke:none;stroke-width:1.70000005;stroke-linecap:round;stroke-miterlimit:4;stroke-dasharray:none;stroke-dashoffset:0;stroke-opacity:1" />
    <path
       style="opacity:1;fill:#000000;fill-opacity:1;stroke:none;stroke-width:1.70000005;stroke-linecap:round;stroke-miterlimit:4;stroke-dasharray:none;stroke-dashoffset:0;stroke-opacity:1"
       d="m 55.82249,978.97813 c -1.11936,-0.0267 -2.260693,0.0853 -3.44576,0.308 -8.298774,1.5551 -14.434535,9.7543 -13.541281,18.09536 l 0.2424,2.26054 -1.3892,-0.192 c -12.675921,-1.75174 -20.914988,-5.736 -29.7963012,-14.40907 l -3.3476,-3.2688 -0.402347,1.05387 c -2.75632,7.224 -1.63256,14.10666 3.17168,19.42427 0.774774,0.8576 1.180187,1.5861 0.986267,1.7741 -0.190133,0.184 -1.469067,-0.045 -3.02696,-0.5421 -1.48376,-0.4736 -2.811041,-0.7912 -2.949201,-0.7059 -0.272853,0.168 0.016,1.9518 0.728641,4.523 1.237306,4.4554 4.4472,8.2357 9.1064062,10.7242 l 2.712586,1.4488 -3.08712,0.1814 c -3.0345922,0.1786 -3.0858452,0.1973 -2.9917652,1.0896 0.158133,1.5021 2.6793382,4.7949 5.0318992,6.5714 1.87216,1.4139 3.5592,2.248 8.612134,4.2595 0.531466,0.2106 0.130666,0.5696 -1.997574,1.7842 -5.07872,2.899 -9.896081,4.2131 -17.0994202,4.664 -2.039947,0.128 -3.45325298,0.3654 -3.33282698,0.5603 0.114934,0.1867 1.33786698,0.9064 2.71711998,1.6008 6.032961,3.0381 11.7840872,4.7389 17.6663272,5.2243 1.95848,0.1626 3.642694,0.3141 3.74256,0.3389 0.09973,0.027 2.129867,-0.1173 4.511521,-0.3133 6.832614,-0.5659 12.305787,-2.0598 18.044268,-4.9248 10.661227,-5.3224 20.246481,-17.2832 23.552855,-29.3899 1.287973,-4.7157 2.1956,-9.7544 2.1956,-12.19091 0,-2.608 0.411787,-3.324 4.17555,-7.25733 4.12944,-4.3152 4.35901,-4.97867 1.36312,-3.94267 -2.77078,0.9576 -4.780937,1.39947 -4.971177,1.09174 -0.08507,-0.13867 0.739254,-1.36507 1.831841,-2.7272 1.992216,-2.48454 3.613576,-5.21894 3.287996,-5.54454 -0.0955,-0.096 -1.29165,0.30907 -2.65808,0.89947 -1.366476,0.5904 -3.580503,1.43093 -4.920103,1.86827 l -2.435627,0.7944 -2.22512,-1.51067 c -3.545441,-2.40773 -6.705094,-3.56683 -10.063201,-3.6215 z"
       id="path4175"
       inkscape:connector-curvature="0" />
  </g>
</svg>
