<?xml version="1.0" encoding="UTF-8" standalone="no"?>
<!-- Created with Inkscape (http://www.inkscape.org/) -->

<svg
   xmlns:dc="http://purl.org/dc/elements/1.1/"
   xmlns:cc="http://creativecommons.org/ns#"
   xmlns:rdf="http://www.w3.org/1999/02/22-rdf-syntax-ns#"
   xmlns:svg="http://www.w3.org/2000/svg"
   xmlns="http://www.w3.org/2000/svg"
   xmlns:sodipodi="http://sodipodi.sourceforge.net/DTD/sodipodi-0.dtd"
   xmlns:inkscape="http://www.inkscape.org/namespaces/inkscape"
   width="80"
   height="80"
   viewBox="0 0 80.000001 80.000001"
   id="svg8187"
   version="1.1"
   inkscape:version="0.91 r"
   sodipodi:docname="icon-st.svg">
  <defs
     id="defs8189" />
  <sodipodi:namedview
     id="base"
     pagecolor="#ffffff"
     bordercolor="#666666"
     borderopacity="1.0"
     inkscape:pageopacity="0.0"
     inkscape:pageshadow="2"
     inkscape:zoom="1.4"
     inkscape:cx="-6.1622856"
     inkscape:cy="90.736804"
     inkscape:document-units="px"
     inkscape:current-layer="layer1"
     showgrid="false"
     units="px"
     inkscape:window-width="1366"
     inkscape:window-height="744"
     inkscape:window-x="0"
     inkscape:window-y="24"
     inkscape:window-maximized="1" />
  <metadata
     id="metadata8192">
    <rdf:RDF>
      <cc:Work
         rdf:about="">
        <dc:format>image/svg+xml</dc:format>
        <dc:type
           rdf:resource="http://purl.org/dc/dcmitype/StillImage" />
        <dc:title />
      </cc:Work>
    </rdf:RDF>
  </metadata>
  <g
     inkscape:label="Layer 1"
     inkscape:groupmode="layer"
     id="layer1"
     transform="translate(0,-972.36216)">
    <rect
       y="972.36218"
       x="0"
       height="80"
       width="80"
       id="rect4773-7-9-2-4-6"
       style="opacity:1;fill:none;fill-opacity:1;stroke:none;stroke-width:1.70000005;stroke-linecap:round;stroke-miterlimit:4;stroke-dasharray:none;stroke-dashoffset:0;stroke-opacity:1" />
    <path
       style="opacity:1;fill:#000000;fill-opacity:1;stroke:none;stroke-width:1.70000005;stroke-linecap:round;stroke-miterlimit:4;stroke-dasharray:none;stroke-dashoffset:0;stroke-opacity:1"
       d="m 66.755551,989.00319 c -3.507278,0 -4.240504,0.1333 -6.109863,1.1189 -3.973037,2.0931 -6.576315,5.9032 -7.115381,10.41341 -0.151733,1.269 -0.955973,4.417 -1.786879,6.9954 -1.503759,4.6662 -1.517438,4.6894 -3.002824,4.9582 -1.482212,0.2682 -5.080583,1.8416 -6.351755,2.7773 -0.53088,0.3906 -2.378639,-0.08 -9.229354,-2.3539 -13.032123,-4.3253 -12.870843,-4.2568 -13.173483,-5.6346 -0.143733,-0.6547 -0.948799,-1.9934 -1.788825,-2.9747 C 11.899911,996.94639 6.070262e-7,1001.1715 6.070262e-7,1010.7645 c 0,6.2003 4.0928769929738,10.3272 10.2420983929738,10.3272 1.994612,0 3.318611,-0.256 4.63237,-0.8933 l 1.839972,-0.8942 10.918579,3.64 10.918578,3.6392 1.353599,2.7499 c 1.402532,2.8491 3.566931,4.8315 6.426449,5.8856 1.968932,0.7259 6.138769,0.6552 8.482767,-0.144 4.230583,-1.4416 7.291381,-5.9392 7.353994,-10.8072 l 0.02693,-2.1277 4.27317,-3.6112 c 2.349971,-1.9862 5.083436,-4.0232 6.074449,-4.5275 2.737621,-1.3928 4.970311,-3.6346 6.241621,-6.2664 1.50827,-3.1224 1.62899,-8.03141 0.27139,-11.02661 -1.19896,-2.6454 -3.64064,-5.2432 -6.190505,-6.5867 -1.869359,-0.9848 -2.602585,-1.1189 -6.109862,-1.1189 z m -0.305467,2.6877 c 1.617226,-0.032 3.306558,0.3382 4.969303,1.2067 7.554184,3.9464 7.554184,14.26671 0,18.21311 -2.487518,1.2994 -5.790769,1.5346 -8.381807,0.597 -2.023572,-0.7322 -4.54485,-2.9845 -5.553329,-4.9616 -3.698291,-7.24901 1.957945,-14.91891 8.965833,-15.05521 z m 0.036,3.0768 c -4.36925,0.1627 -8.174447,4.2507 -6.868928,9.09901 0.545493,2.0256 2.245998,4.129 3.970984,4.9117 2.073758,0.9405 5.730529,0.532 7.531647,-0.8419 1.997732,-1.5237 2.767492,-3.121 2.767492,-5.7434 0,-2.79821 -0.99056,-4.82401 -3.012665,-6.16221 -1.413305,-0.9354 -2.932104,-1.3173 -4.38853,-1.2632 z m -55.988385,8.85121 c 1.611545,0.037 3.253037,0.624 4.667756,1.8144 1.773759,1.4926 1.547279,1.8656 -0.673172,1.1091 -3.701091,-1.2611 -7.0717014,0.1733 -8.1609274,3.4741 -0.954639,2.8926 1.128826,6.4133 4.1938634,7.0867 0.695093,0.152 1.371412,0.4522 1.503039,0.6653 0.399253,0.6459 -3.2874904,0.4277 -4.6336764,-0.2741 -1.891572,-0.9864 -2.765811,-1.892 -3.61637,-3.7443 -1.01056,-2.2005 -0.98456,-3.7357 0.101066,-5.9781 1.330426,-2.7483 3.932611,-4.2147 6.6185284,-4.1531 z m 38.420478,13.6971 c 3.147758,0 6.492822,2.693 7.363835,5.9277 1.553225,5.7683 -4.648557,11.4757 -10.234899,9.4189 -2.242345,-0.8256 -5.449196,-4.0117 -4.745784,-4.7152 0.112534,-0.112 1.750212,0.2838 3.639304,0.8806 4.047491,1.2784 5.777543,1.0466 7.780741,-1.0443 1.084186,-1.1317 1.238879,-1.6003 1.238879,-3.7555 0,-2.132 -0.159466,-2.628 -1.189732,-3.7034 -0.65424,-0.683 -2.027465,-1.4758 -3.051971,-1.7627 -2.372318,-0.6643 -2.745838,-1.2461 -0.800373,-1.2461 z"
       id="path8043"
       inkscape:connector-curvature="0" />
  </g>
</svg>
