<?xml version="1.0" encoding="UTF-8" standalone="no"?>
<!-- Created with Inkscape (http://www.inkscape.org/) -->

<svg
   xmlns:dc="http://purl.org/dc/elements/1.1/"
   xmlns:cc="http://creativecommons.org/ns#"
   xmlns:rdf="http://www.w3.org/1999/02/22-rdf-syntax-ns#"
   xmlns:svg="http://www.w3.org/2000/svg"
   xmlns="http://www.w3.org/2000/svg"
   xmlns:sodipodi="http://sodipodi.sourceforge.net/DTD/sodipodi-0.dtd"
   xmlns:inkscape="http://www.inkscape.org/namespaces/inkscape"
   width="80"
   height="80"
   viewBox="0 0 80.000001 80.000001"
   id="svg8187"
   version="1.1"
   inkscape:version="0.91 r"
   sodipodi:docname="icon-sn.svg">
  <defs
     id="defs8189" />
  <sodipodi:namedview
     id="base"
     pagecolor="#ffffff"
     bordercolor="#666666"
     borderopacity="1.0"
     inkscape:pageopacity="0.0"
     inkscape:pageshadow="2"
     inkscape:zoom="1.979899"
     inkscape:cx="-21.241774"
     inkscape:cy="55.464078"
     inkscape:document-units="px"
     inkscape:current-layer="layer1"
     showgrid="false"
     units="px"
     inkscape:window-width="1366"
     inkscape:window-height="744"
     inkscape:window-x="0"
     inkscape:window-y="24"
     inkscape:window-maximized="1" />
  <metadata
     id="metadata8192">
    <rdf:RDF>
      <cc:Work
         rdf:about="">
        <dc:format>image/svg+xml</dc:format>
        <dc:type
           rdf:resource="http://purl.org/dc/dcmitype/StillImage" />
        <dc:title />
      </cc:Work>
    </rdf:RDF>
  </metadata>
  <g
     inkscape:label="Layer 1"
     inkscape:groupmode="layer"
     id="layer1"
     transform="translate(0,-972.36216)">
    <path
       style="opacity:1;fill:#000000;fill-opacity:1;stroke:none;stroke-width:1.70000005;stroke-linecap:round;stroke-miterlimit:4;stroke-dasharray:none;stroke-dashoffset:0;stroke-opacity:1"
       d="m 40.326267,974.65783 c -4.790587,-0.0267 -8.133254,0.71627 -11.574721,2.53173 -5.102427,2.69142 -9.255947,8.08209 -10.36864,13.45729 -0.385574,1.86266 -0.401947,2.3904 -0.269227,8.63813 l 0.141333,6.65442 -1.390586,0 c -0.793467,0 -2.07016,-0.184 -2.973494,-0.4277 -2.376987,-0.6427 -2.913653,-0.6704 -3.80624,-0.1947 -3.7575741,1.9987 -2.4711741,4.4867 3.48976,6.748 3.647387,1.384 4.4972,2.3648 4.023894,4.6448 -0.522054,2.5147 -3.224774,6.6856 -6.133067,9.4643 -2.6286141,2.5112 -5.1441341,4.0152 -8.5449341,5.1096 -2.05954705,0.6626 -2.9203470485715,1.3226 -2.9203470485715,2.2394 0,1.6294 2.6881600485715,3.071 7.7050140485715,4.1323 2.8251731,0.5979 2.8131201,0.5912 3.1620531,1.764 0.170667,0.5739 0.419147,1.5387 0.55192,2.144 0.304107,1.3861 0.488667,1.7424 0.98408,1.8997 0.2176,0.069 1.545814,-0.069 2.951921,-0.3077 1.958933,-0.3323 3.094693,-0.4128 4.858187,-0.3451 2.80264,0.1094 4.266426,0.6179 7.304747,2.544 5.744453,3.6416 7.070453,4.292 9.406133,4.6155 1.623334,0.224 6.335521,0.037 7.751921,-0.3107 1.504613,-0.368 2.6404,-0.9568 6.24032,-3.2338 4.651894,-2.9427 5.408267,-3.2755 7.914507,-3.4838 1.355067,-0.112 3.308961,-0.096 5.465761,0.051 3.96192,0.2667 3.897067,0.2928 4.449147,-1.7843 0.39312,-1.4792 0.917786,-2.6464 1.35088,-3.0058 0.154133,-0.128 0.915733,-0.3227 1.692667,-0.4328 0.776906,-0.1094 2.166,-0.4374 3.086693,-0.7272 3.834828,-1.2072 5.324298,-2.2795 5.102698,-3.6728 -0.16027,-1.0086 -0.81704,-1.4803 -3.0667,-2.2032 -4.740451,-1.524 -8.741572,-4.6523 -11.771092,-9.203 -2.581173,-3.8773 -3.275493,-6.325 -2.195493,-7.741 0.49944,-0.6547 2.69552,-1.847 4.72464,-2.5651 1.425227,-0.5043 3.426293,-1.7872 3.926614,-2.5173 0.925013,-1.3496 0.33368,-2.9358 -1.408721,-3.7792 -1.139386,-0.5518 -2.288506,-0.5291 -4.202426,0.083 -1.941467,0.62 -4.133681,0.6976 -4.165521,0.1466 -0.01067,-0.192 -0.03653,-3.6376 -0.05653,-7.65518 -0.04053,-8.13947 -0.0464,-8.184 -1.515653,-11.33093 -1.090881,-2.3368 -2.234561,-3.94214 -4.192747,-5.8856 -4.270054,-4.23729 -8.946161,-6.03889 -15.728668,-6.05969 z"
       id="rect8184"
       inkscape:connector-curvature="0" />
  </g>
</svg>
