<?xml version="1.0" encoding="UTF-8" standalone="no"?>
<!-- Created with Inkscape (http://www.inkscape.org/) -->

<svg
   xmlns:dc="http://purl.org/dc/elements/1.1/"
   xmlns:cc="http://creativecommons.org/ns#"
   xmlns:rdf="http://www.w3.org/1999/02/22-rdf-syntax-ns#"
   xmlns:svg="http://www.w3.org/2000/svg"
   xmlns="http://www.w3.org/2000/svg"
   xmlns:sodipodi="http://sodipodi.sourceforge.net/DTD/sodipodi-0.dtd"
   xmlns:inkscape="http://www.inkscape.org/namespaces/inkscape"
   width="80"
   height="80"
   viewBox="0 0 80 79.999999"
   id="svg4183"
   version="1.1"
   inkscape:version="0.91 r"
   sodipodi:docname="icon-fb.svg">
  <defs
     id="defs4185" />
  <sodipodi:namedview
     id="base"
     pagecolor="#ffffff"
     bordercolor="#666666"
     borderopacity="1.0"
     inkscape:pageopacity="0.0"
     inkscape:pageshadow="2"
     inkscape:zoom="3.959798"
     inkscape:cx="14.553091"
     inkscape:cy="51.865465"
     inkscape:document-units="px"
     inkscape:current-layer="layer1"
     showgrid="false"
     units="px"
     inkscape:window-width="1366"
     inkscape:window-height="744"
     inkscape:window-x="0"
     inkscape:window-y="24"
     inkscape:window-maximized="1" />
  <metadata
     id="metadata4188">
    <rdf:RDF>
      <cc:Work
         rdf:about="">
        <dc:format>image/svg+xml</dc:format>
        <dc:type
           rdf:resource="http://purl.org/dc/dcmitype/StillImage" />
        <dc:title />
      </cc:Work>
    </rdf:RDF>
  </metadata>
  <g
     inkscape:label="Layer 1"
     inkscape:groupmode="layer"
     id="layer1"
     transform="translate(0,-972.36222)">
    <path
       style="opacity:1;fill:#000000;fill-opacity:1;stroke:none;stroke-width:1.70000005;stroke-linecap:round;stroke-miterlimit:4;stroke-dasharray:none;stroke-dashoffset:0;stroke-opacity:1"
       d="m 50.617159,972.36439 c -1.185538,0 -2.252776,0.0267 -2.639944,0.0507 -6.015987,0.50853 -10.581556,2.96716 -13.45341,7.25367 -1.524139,2.27544 -2.559012,5.17887 -2.945164,8.2527 -0.184665,1.46985 -0.188345,1.63918 -0.210078,7.88818 l -0.01973,6.23136 -6.215363,0 -6.215365,0 0,7.2578 0,7.2618 6.215365,0 6.219328,0 0,18.4795 0,17.3222 14.96365,0 0,-17.3222 0,-18.4835 6.195545,0 c 4.911202,0 6.197848,-0.027 6.215365,-0.059 0.02427,-0.067 1.85906,-14.2601 1.85906,-14.3812 0,-0.067 -0.757665,-0.075 -7.134983,-0.075 l -7.134987,0 0,-5.07377 c 0,-3.0981 0.02133,-5.27221 0.05152,-5.58527 0.337548,-3.41062 1.866577,-4.97487 5.299712,-5.4226 0.518052,-0.0667 1.340096,-0.0853 5.01827,-0.10667 l 4.395945,-0.0267 0,-6.45715 0,-6.45726 -0.186318,-0.0267 c -0.802529,-0.13067 -4.418979,-0.37973 -6.932829,-0.47573 -0.857973,-0.032 -2.159976,-0.048 -3.345514,-0.048 z"
       id="rect4154"
       inkscape:connector-curvature="0" />
  </g>
</svg>
