<?xml version="1.0" encoding="UTF-8" standalone="no"?>
<!-- Created with Inkscape (http://www.inkscape.org/) -->

<svg
   xmlns:dc="http://purl.org/dc/elements/1.1/"
   xmlns:cc="http://creativecommons.org/ns#"
   xmlns:rdf="http://www.w3.org/1999/02/22-rdf-syntax-ns#"
   xmlns:svg="http://www.w3.org/2000/svg"
   xmlns="http://www.w3.org/2000/svg"
   xmlns:sodipodi="http://sodipodi.sourceforge.net/DTD/sodipodi-0.dtd"
   xmlns:inkscape="http://www.inkscape.org/namespaces/inkscape"
   width="80"
   height="80"
   viewBox="0 0 80.000001 80.000001"
   id="svg5433"
   version="1.1"
   inkscape:version="0.91 r"
   sodipodi:docname="icon-ig.svg">
  <defs
     id="defs5435" />
  <sodipodi:namedview
     id="base"
     pagecolor="#ffffff"
     bordercolor="#666666"
     borderopacity="1.0"
     inkscape:pageopacity="0.0"
     inkscape:pageshadow="2"
     inkscape:zoom="1.979899"
     inkscape:cx="-57.072672"
     inkscape:cy="36.483379"
     inkscape:document-units="px"
     inkscape:current-layer="layer1"
     showgrid="false"
     units="px"
     inkscape:window-width="1366"
     inkscape:window-height="744"
     inkscape:window-x="0"
     inkscape:window-y="24"
     inkscape:window-maximized="1" />
  <metadata
     id="metadata5438">
    <rdf:RDF>
      <cc:Work
         rdf:about="">
        <dc:format>image/svg+xml</dc:format>
        <dc:type
           rdf:resource="http://purl.org/dc/dcmitype/StillImage" />
        <dc:title />
      </cc:Work>
    </rdf:RDF>
  </metadata>
  <g
     inkscape:label="Layer 1"
     inkscape:groupmode="layer"
     id="layer1"
     transform="translate(0,-972.36216)">
    <path
       style="fill:#000000"
       d="m 9.802945,1046.4252 c -1.8763736,-0.8523 -3.7365999,-2.9995 -4.3382499,-5.0075 -0.6195936,-2.0681 -0.6195936,-56.0258 0,-58.09393 0.6018364,-2.00876 2.3111436,-3.9718 4.2941499,-4.93173 1.637276,-0.79263 2.03525,-0.80337 30.241142,-0.80337 28.205892,0 28.603866,0 30.241166,0.80337 1.983003,0.95993 3.692289,2.92297 4.294149,4.93173 0.619597,2.06813 0.619597,56.02583 0,58.09393 -0.60165,2.008 -2.461899,4.1552 -4.338249,5.0075 -1.47707,0.6709 -3.16491,0.7105 -30.197066,0.7105 -27.032156,0 -28.719996,-0.039 -30.197042,-0.7105 z m 56.331448,-8.1123 c 0.742723,-0.7427 0.76867,-1.281 0.76867,-15.9495 l 0,-15.1812 -3.08196,0 -3.08196,0 0.284784,1.057 c 0.156566,0.5813 0.279322,2.527 0.272672,4.3238 -0.04294,11.6078 -9.638439,21.1267 -21.296612,21.1267 -11.658173,0 -21.253703,-9.5189 -21.296613,-21.1268 -0.007,-1.7967 0.115967,-3.7424 0.272697,-4.3238 l 0.28476,-1.057 -3.08196,0 -3.081936,0 0,15.1813 c 0,14.6685 0.0259,15.2068 0.768646,15.9495 0.75313,0.7532 1.281094,0.7689 26.134406,0.7689 24.853312,0 25.381276,-0.024 26.134406,-0.7689 z M 45.47065,1024.1915 c 2.58307,-1.1333 5.33337,-3.877 6.56488,-6.5489 1.19035,-2.5826 1.19035,-7.9611 0,-10.5439 -3.017443,-6.5467 -10.863953,-9.55175 -17.345462,-6.6431 -2.749974,1.2342 -5.471598,3.9223 -6.7256,6.6431 -1.18664,2.5747 -1.190234,7.9619 -0.007,10.5281 3.080022,6.6801 10.722016,9.5446 17.513252,6.5647 z m 20.489046,-26.02345 c 0.901693,-0.9018 0.943367,-1.1571 0.943367,-5.78245 0,-4.62537 -0.04176,-4.88063 -0.943367,-5.78247 -0.90167,-0.9016 -1.157077,-0.94336 -5.782397,-0.94336 -4.625342,0 -4.880726,0.042 -5.782419,0.94336 -0.892033,0.89204 -0.943343,1.18347 -0.943343,5.3557 0,4.87062 0.328066,6.23182 1.627803,6.75402 0.478683,0.1914 2.910319,0.3608 5.403673,0.3741 4.316643,0.023 4.578443,-0.023 5.476683,-0.9189 z"
       id="path5406"
       inkscape:connector-curvature="0" />
  </g>
</svg>
