<?xml version="1.0" encoding="UTF-8" standalone="no"?>
<!-- Generator: Adobe Illustrator 16.0.0, SVG Export Plug-In . SVG Version: 6.00 Build 0)  -->

<svg
   xmlns:dc="http://purl.org/dc/elements/1.1/"
   xmlns:cc="http://creativecommons.org/ns#"
   xmlns:rdf="http://www.w3.org/1999/02/22-rdf-syntax-ns#"
   xmlns:svg="http://www.w3.org/2000/svg"
   xmlns="http://www.w3.org/2000/svg"
   xmlns:sodipodi="http://sodipodi.sourceforge.net/DTD/sodipodi-0.dtd"
   xmlns:inkscape="http://www.inkscape.org/namespaces/inkscape"
   version="1.1"
   id="Layer_1"
   x="0px"
   y="0px"
   width="115"
   height="115"
   viewBox="68.133 0 115 115"
   enable-background="new 68.133 0 205.167 37.473"
   xml:space="preserve"
   inkscape:version="0.91 r"
   sodipodi:docname="logo-text-white.svg"><metadata
     id="metadata27"><rdf:RDF><cc:Work
         rdf:about=""><dc:format>image/svg+xml</dc:format><dc:type
           rdf:resource="http://purl.org/dc/dcmitype/StillImage" /><dc:title></dc:title></cc:Work></rdf:RDF></metadata><defs
     id="defs25" /><sodipodi:namedview
     pagecolor="#ffffff"
     bordercolor="#666666"
     borderopacity="1"
     objecttolerance="10"
     gridtolerance="10"
     guidetolerance="10"
     inkscape:pageopacity="0"
     inkscape:pageshadow="2"
     inkscape:window-width="1366"
     inkscape:window-height="744"
     id="namedview23"
     showgrid="false"
     inkscape:zoom="3.0316765"
     inkscape:cx="61.597557"
     inkscape:cy="39.578557"
     inkscape:window-x="0"
     inkscape:window-y="24"
     inkscape:window-maximized="1"
     inkscape:current-layer="Layer_1" /><g
     id="Layer_4"
     display="none"
     style="display:none"
     transform="translate(0,77.527)"><path
       display="inline"
       d="m 170.148,17.94 c -3.716,-0.685 -5.986,-1.312 -7.348,-2.673 -1.36,-1.36 -1.988,-3.63 -2.673,-7.348 -0.058,-0.307 -0.321,-0.528 -0.636,-0.528 -0.312,0 -0.58,0.225 -0.635,0.528 -0.685,3.718 -1.312,5.986 -2.673,7.348 -1.361,1.36 -3.633,1.988 -7.348,2.673 -0.306,0.059 -0.528,0.322 -0.528,0.637 0,0.312 0.224,0.579 0.528,0.635 3.715,0.685 5.986,1.313 7.348,2.673 1.359,1.36 1.988,3.632 2.673,7.348 0.055,0.307 0.321,0.528 0.635,0.528 0.312,0 0.578,-0.224 0.636,-0.528 0.685,-3.716 1.312,-5.985 2.673,-7.348 1.36,-1.357 3.632,-1.988 7.348,-2.673 0.307,-0.056 0.528,-0.321 0.528,-0.635 0,-0.314 -0.221,-0.579 -0.528,-0.637 z"
       id="path4"
       inkscape:connector-curvature="0"
       style="display:inline;fill:#ffffff" /></g><g
     id="Layer_2"
     display="none"
     style="display:none"
     transform="translate(0,77.527)"><path
       display="inline"
       stroke-miterlimit="10"
       d="m -13.007,-45.615 c 6.705,-9.825 10.625,-21.703 10.625,-34.496 0,-33.843 -27.435,-61.275 -61.277,-61.275 -33.842,0 -61.276,27.435 -61.276,61.275 0,33.843 27.435,61.276 61.276,61.276 14.613,0 28.031,-5.115 38.562,-13.652"
       id="path7"
       inkscape:connector-curvature="0"
       style="display:inline;fill:none;stroke:#000000;stroke-width:8;stroke-linecap:round;stroke-miterlimit:10" /></g><path
     inkscape:connector-curvature="0"
     style="opacity:1;fill:#ffffff;fill-opacity:1;stroke:none;stroke-opacity:1"
     d="M 125.63299,9e-6 A 57.500109,57.500109 0 0 0 89.078813,13.150298 l -0.42616,0 0.0853,0.259273 A 57.500109,57.500109 0 0 0 68.133003,57.5 57.500109,57.500109 0 0 0 125.63299,114.99999 57.500109,57.500109 0 0 0 183.133,57.5 57.500109,57.500109 0 0 0 162.5126,13.457847 l 0.1008,-0.307549 -0.45062,0 A 57.500109,57.500109 0 0 0 125.63306,9e-6 Z m 0,6.689283 a 50.810704,50.810704 0 0 1 26.63914,7.617289 l -6.84843,21.89176 c -0.76217,-3.487889 -2.1969,-6.368851 -4.31052,-8.637155 -3.27875,-3.547504 -7.95508,-5.321388 -14.02886,-5.321388 -6.5575,0 -11.85185,2.163348 -15.88311,6.490231 -2.25233,2.433746 -3.87102,5.348109 -4.85648,8.742632 L 98.990273,14.279174 A 50.810704,50.810704 0 0 1 125.63299,6.689292 Z M 91.021303,20.358127 119.80139,107.94236 A 50.810704,50.810704 0 0 1 74.822283,57.5 50.810704,50.810704 0 0 1 91.021303,20.358127 Z m 69.220397,0.02687 a 50.810704,50.810704 0 0 1 16.20199,37.115038 50.810704,50.810704 0 0 1 -44.8903,50.401235 L 160.2417,20.384997 Z m -33.56028,8.103682 c 4.03124,0 7.0281,1.088199 8.98997,3.265069 1.98875,2.176876 2.99621,5.253875 3.0231,9.231375 l -25.79994,0 c 0.32251,-3.547504 1.67964,-6.517044 4.07151,-8.908918 2.41875,-2.391892 5.65722,-3.587526 9.71536,-3.587526 z m -13.78687,18.301816 29.2152,0 -4.55609,14.562906 c -2.89677,1.06357 -5.78185,1.60213 -8.65501,1.60213 -2.31124,0 -4.43421,-0.32236 -6.36922,-0.96736 -1.90812,-0.645 -3.56091,-1.612684 -4.9584,-2.902687 -1.45125,-1.316878 -2.59347,-2.996366 -3.4266,-5.038867 -0.83312,-2.069379 -1.24988,-4.487995 -1.24988,-7.256122 z m 2.6601,19.726346 c 3.65074,2.03003 8.12266,3.0499 13.42447,3.0499 2.13386,0 4.19559,-0.19491 6.18683,-0.57994 l -6.1928,19.79489 -3.05824,11.843789 -0.48339,0 -2.81625,-11.843789 -7.06062,-22.26485 z"
     id="circle4241" /></svg>